<?xml version="1.0" standalone="no"?>
<!DOCTYPE svg PUBLIC "-//W3C//DTD SVG 20010904//EN"
 "http://www.w3.org/TR/2001/REC-SVG-20010904/DTD/svg10.dtd">
<svg version="1.0" xmlns="http://www.w3.org/2000/svg"
 width="225.000000pt" height="225.000000pt" viewBox="0 0 225.000000 225.000000"
 preserveAspectRatio="xMidYMid meet">

<g transform="translate(0.000000,225.000000) scale(0.100000,-0.100000)"
fill="#000000" stroke="none">
<path d="M948 2234 c-96 -15 -239 -59 -320 -100 -211 -105 -407 -301 -512
-512 -67 -133 -116 -343 -116 -497 0 -154 49 -364 116 -497 105 -211 301 -407
512 -512 133 -67 343 -116 497 -116 154 0 364 49 497 116 211 105 407 301 512
512 67 133 116 343 116 497 0 154 -49 364 -116 497 -105 211 -301 407 -512
512 -194 98 -449 136 -674 100z m282 -165 c122 -15 193 -35 297 -84 111 -52
164 -88 249 -167 89 -84 149 -166 205 -283 126 -265 128 -550 4 -812 -52 -111
-88 -164 -167 -249 -84 -89 -166 -149 -283 -205 -115 -55 -182 -74 -316 -90
-169 -19 -337 10 -504 90 -117 56 -199 116 -283 205 -79 85 -115 138 -167 249
-96 204 -116 426 -59 652 21 83 102 248 157 321 53 70 154 167 222 214 65 45
219 116 291 134 128 33 234 40 354 25z"/>
<path d="M774 1541 c-47 -28 -64 -59 -64 -113 0 -115 137 -170 219 -87 42 41
49 90 23 144 -34 69 -115 95 -178 56z"/>
<path d="M1371 1543 c-42 -21 -76 -90 -67 -135 21 -107 154 -144 225 -62 26
28 31 43 31 83 0 101 -97 159 -189 114z"/>
<path d="M664 972 c-6 -4 -17 -18 -23 -30 -16 -30 -3 -65 55 -148 107 -152
315 -236 511 -206 174 27 343 152 402 299 12 28 11 36 -3 58 -37 56 -85 45
-122 -26 -35 -71 -103 -135 -182 -172 -63 -30 -74 -32 -177 -32 -103 0 -114 2
-177 32 -78 37 -147 101 -182 171 -14 27 -32 52 -41 56 -22 8 -47 7 -61 -2z"/>
</g>
</svg>
